<svg xmlns="http://www.w3.org/2000/svg" xmlns:xlink="http://www.w3.org/1999/xlink" viewBox="0 0 200 200">
  <title>Flayground Logo</title>
  <style>
    body {
      text-align: center;
    }
    svg {
      width: 50%;
    }
    text {
      fill: #0f0f0f;
      text-transform: uppercase;
      font-size: 32px;
    }
    .coffee {
        letter-spacing: 6px;
    }
  </style>
  <defs>
    <path id="coffeecircle" d="M15,100a85,85 0 1,0 170,0a85,85 0 1,0 -170,0" />
    <path id="starbuckscircle" d="M100,37c34.8,0,63,28.2,63,63s-28.2,63-63,63s-63-28.2-63-63S65.2,37,100,37z" transform="rotate(-98 100 100)" />
    <symbol>
      <path id="star" fill="#0f0f0f" d="M29.3,115.4c2.4,0,4.8,0.1,7.3,0l-5.6,4.7c0.5,2,1,4.2,1.7,6.8l-5.5-3.8c-2.3,1.1-3.7,2.4-6.1,3.6 l1.9-6.6c-1.8-1.5-3.9-2.9-5.6-4.4c2.5-0.1,4.7,0,7.1,0c1.1-2.1,1.6-4.5,2.6-6.6L29.3,115.4" />
    </symbol>
  </defs>
  <circle cx="100" cy="100" r="100" fill="#00000000" id="background" />
  <circle cx="100" cy="100" r="93.8" fill="none" stroke="#0f0f0f" stroke-width="4" id="rim" />
  <circle cx="100" cy="100" r="57" fill="none" stroke="#0f0f0f" stroke-width="4" id="fill" />
  <text dx="6" class="starbucks">
    <textPath xlink:href="#starbuckscircle">Flayground</textPath>
  </text>
  <text dx="53" textLength="160" class="coffee">
    <textPath xlink:href="#coffeecircle">Crazy</textPath>
  </text>
  <use xlink:href="#star" />
  <use xlink:href="#star" transform="translate(146)" />
  <g transform="translate(45, 188) scale(0.05,-0.05)" fill="#0f0f0f" stroke="none">
    <path d="M1889 2463 c-43 -36 -78 -75 -79 -88 0 -6 -11 -27 -25 -46 -13 -20 -21 -39 -18 -43 4 -3 1 -6 -5 -6 -6 0 -20 -20 -31 -45 -11 -25 -25 -45 -30 -45 -6 0 -11 -5 -11 -11 0 -6 -15 -26 -32 -46 -99 -106 -127 -133 -137 -133 -6 0 -11 -4 -11 -10 0 -5 -6 -10 -13 -10 -8 0 -33 -18 -56 -40 -23 -22 -44 -40 -47 -40 -2 0 -31 -27 -64 -60 -33 -33 -64 -60 -69 -60 -4 0 -47 -38 -95 -84 -48 -47 -96 -88 -106 -91 -11 -4 -20 -11 -20 -16 0 -5 -7 -9 -15 -9 -7 0 -18 -6 -22 -13 -24 -37 -315 -137 -463 -158 -51 -7 -50 -7 15 -3 39 3 104 7 145 10 80 6 80 6 131 -55 17 -21 23 -47 9 -40 -9 5 -50 -22 -50 -32 0 -6 6 -7 13 -3 13 9 -2 -14 -39 -56 -12 -14 -30 -38 -40 -54 l-18 -29 31 16 c17 9 49 19 71 23 26 4 44 14 51 28 7 12 32 32 57 45 24 13 44 28 44 32 0 5 6 9 14 9 8 0 35 20 60 45 26 25 51 45 56 45 6 0 10 6 10 14 0 7 9 16 21 19 11 3 23 15 26 26 3 12 13 21 23 21 10 0 23 6 29 13 6 8 30 22 53 33 24 10 45 21 48 24 11 11 82 40 99 40 22 0 83 29 93 44 14 20 8 29 -9 15 -10 -9 -14 -9 -10 -2 6 9 -7 12 -45 13 -29 0 -66 2 -83 4 -16 3 -38 5 -47 5 -37 2 -17 32 36 55 47 21 53 27 49 48 -4 22 8 34 89 95 167 125 219 161 274 190 52 27 54 30 64 83 16 82 69 248 97 303 13 27 22 51 20 53 -3 3 -20 -8 -38 -23z" />
    <path d="M580 2411 c0 -16 -8 -34 -19 -42 -18 -14 -18 -15 5 -54 l24 -40 0 83 c0 45 -2 82 -5 82 -3 0 -5 -13 -5 -29z" />
    <path d="M676 2368 c-10 -38 -7 -48 15 -48 17 0 20 5 17 32 -4 38 -23 48 -32 16z" />
    <path d="M487 2320 c4 -27 0 -47 -11 -64 -8 -14 -13 -32 -10 -41 5 -11 0 -18 -14 -22 -22 -5 -37 -39 -47 -108 l-6 -40 14 30 c8 17 30 45 51 62 l36 32 0 96 c0 52 -4 95 -9 95 -5 0 -7 -18 -4 -40z" />
    <path d="M712 2306 c-19 -7 -39 -21 -45 -31 -15 -29 -28 -34 -54 -22 -32 14 -69 -4 -75 -37 -3 -14 -1 -26 3 -26 5 0 9 -14 9 -32 l0 -31 58 54 c31 30 77 71 102 91 50 41 51 51 2 34z" />
    <path d="M338 1975 c-4 -11 -7 -45 -6 -75 0 -45 2 -51 10 -30 5 13 8 47 6 75 -2 34 -5 44 -10 30z" />
    <path d="M1760 1660 c0 -5 -6 -10 -13 -10 -7 0 -19 -9 -26 -19 -8 -11 -20 -17 -28 -14 -7 3 -13 0 -13 -6 0 -16 -49 -61 -79 -72 -14 -6 -21 -15 -18 -24 4 -10 1 -12 -10 -8 -11 4 -14 3 -9 -6 5 -8 -3 -16 -23 -24 -19 -7 -31 -18 -31 -29 0 -10 -7 -18 -15 -18 -8 0 -15 -4 -15 -9 0 -5 -11 -12 -25 -15 -14 -4 -25 -10 -25 -14 0 -5 -7 -17 -16 -28 -15 -19 -16 -19 -10 1 5 18 4 17 -14 -4 -11 -12 -17 -27 -14 -33 3 -5 -8 -14 -25 -21 -17 -6 -31 -15 -31 -19 0 -4 -7 -8 -15 -8 -8 0 -15 -6 -15 -13 0 -8 -11 -19 -25 -25 -33 -15 -38 -15 -29 0 4 7 -9 3 -29 -9 -25 -15 -37 -18 -41 -10 -2 7 -5 5 -5 -4 -1 -9 -8 -20 -17 -23 -8 -3 -12 -10 -9 -16 3 -5 2 -10 -3 -10 -5 0 -22 -11 -37 -24 -16 -14 -32 -23 -35 -21 -4 2 -14 -5 -23 -16 -12 -14 -24 -18 -42 -13 -18 4 -27 1 -31 -10 -3 -9 -10 -13 -16 -10 -5 3 -16 -2 -23 -12 -9 -11 -14 -14 -15 -6 0 13 -40 18 -40 5 0 -5 -15 -9 -32 -10 -18 0 -42 -3 -53 -5 -13 -2 -19 2 -17 12 1 10 -2 9 -13 -4 -13 -17 -19 -15 -17 5 1 4 -8 5 -19 2 -12 -3 -25 0 -29 7 -12 20 -30 2 -30 -31 0 -16 -3 -29 -6 -29 -3 0 -29 15 -56 32 -34 22 -68 59 -106 113 -89 129 -93 125 -10 -10 24 -38 58 -79 76 -90 18 -11 57 -38 86 -61 54 -41 62 -43 221 -72 33 -6 40 -10 22 -11 -17 -1 -26 -5 -22 -11 4 -7 51 -10 123 -9 139 2 190 8 171 20 -9 6 -1 9 24 9 20 0 38 -1 40 -1 1 -1 22 8 47 21 55 28 147 115 207 195 24 33 59 71 77 85 59 45 97 98 168 232 64 122 69 136 63 175 -3 24 -10 43 -16 43 -5 0 -9 -4 -9 -10z" />
    <path d="M290 1464 c-1 -23 43 -134 53 -134 6 0 22 -10 35 -22 27 -25 22 -11 -13 37 -12 17 -34 53 -48 80 -14 28 -26 45 -27 39z" />
    <path d="M415 910 c3 -5 14 -10 23 -10 15 0 15 2 2 10 -20 13 -33 13 -25 0z" />
    <path d="M500 900 c-22 -7 -21 -8 12 -9 20 -1 40 4 43 9 7 12 -19 12 -55 0z" />
    <path d="M828 903 c7 -3 16 -2 19 1 4 3 -2 6 -13 5 -11 0 -14 -3 -6 -6z" />
    <path d="M796 882 c-3 -5 8 -6 25 -4 16 2 29 6 29 8 0 8 -49 4 -54 -4z" />
    <path d="M1027 864 c-3 -3 -70 -6 -148 -6 -94 0 -154 -4 -180 -13 -21 -8 -67 -17 -101 -21 -35 -4 -74 -12 -88 -19 -22 -12 -14 -13 60 -9 47 2 96 7 110 10 23 5 58 13 85 18 6 1 15 4 20 8 6 4 44 7 85 8 115 2 122 2 114 -12 -5 -9 -2 -9 9 1 9 7 17 9 17 3 0 -5 18 -1 40 10 22 11 40 22 40 24 0 6 -56 5 -63 -2z" />
  </g>

</svg>